<mxfile host="app.diagrams.net" modified="2024-05-29T21:22:56.859Z" agent="Mozilla/5.0 (Windows NT 10.0; Win64; x64) AppleWebKit/537.36 (KHTML, like Gecko) Chrome/125.0.0.0 Safari/537.36" version="24.4.4" etag="SLcsiEqR7sUyy16xoGli" type="github">
  <diagram name="Page-1" id="Vw1n68YsEtYKXAd48RHP">
    <mxGraphModel>
      <root>
        <mxCell id="0" />
        <mxCell id="1" parent="0" />
      </root>
    </mxGraphModel>
  </diagram>
</mxfile>
